<svg width="81" height="44" viewBox="0 0 81 44" fill="none" xmlns="http://www.w3.org/2000/svg">
<rect width="81" height="44" rx="3" fill="#DC445D"/>
<path d="M30.4722 17.292H33.4971C34.918 17.292 35.9458 17.5044 36.5806 17.9292C37.2153 18.354 37.5327 19.0254 37.5327 19.9434C37.5327 20.5781 37.3545 21.103 36.998 21.5181C36.6465 21.9282 36.1313 22.1943 35.4526 22.3164V22.3896C37.0786 22.668 37.8916 23.5225 37.8916 24.9531C37.8916 25.9102 37.5669 26.6572 36.9175 27.1943C36.2729 27.7314 35.3696 28 34.2075 28H30.4722V17.292ZM31.7173 21.877H33.7681C34.647 21.877 35.2793 21.7402 35.665 21.4668C36.0508 21.1885 36.2437 20.7222 36.2437 20.0679C36.2437 19.4673 36.0288 19.0352 35.5991 18.7715C35.1694 18.5029 34.4858 18.3687 33.5483 18.3687H31.7173V21.877ZM31.7173 22.9316V26.938H33.9512C34.8154 26.938 35.4648 26.772 35.8994 26.4399C36.3389 26.103 36.5586 25.5781 36.5586 24.8652C36.5586 24.2012 36.334 23.7129 35.8848 23.4004C35.4404 23.0879 34.7617 22.9316 33.8486 22.9316H31.7173ZM41.2314 28H40.0156V19.9727H41.2314V28ZM39.9131 17.7974C39.9131 17.519 39.9814 17.3164 40.1182 17.1895C40.2549 17.0576 40.4258 16.9917 40.6309 16.9917C40.8262 16.9917 40.9946 17.0576 41.1362 17.1895C41.2778 17.3213 41.3486 17.5239 41.3486 17.7974C41.3486 18.0708 41.2778 18.2759 41.1362 18.4126C40.9946 18.5444 40.8262 18.6104 40.6309 18.6104C40.4258 18.6104 40.2549 18.5444 40.1182 18.4126C39.9814 18.2759 39.9131 18.0708 39.9131 17.7974ZM49.2734 26.9233H49.2075C48.646 27.7388 47.8062 28.1465 46.688 28.1465C45.6382 28.1465 44.8203 27.7876 44.2344 27.0698C43.6533 26.3521 43.3628 25.3315 43.3628 24.0083C43.3628 22.6851 43.6558 21.6572 44.2417 20.9248C44.8276 20.1924 45.6431 19.8262 46.688 19.8262C47.7769 19.8262 48.6118 20.2217 49.1929 21.0127H49.2881L49.2368 20.4341L49.2075 19.8701V16.6035H50.4233V28H49.4346L49.2734 26.9233ZM46.8418 27.1284C47.6719 27.1284 48.2725 26.9038 48.6436 26.4546C49.0195 26.0005 49.2075 25.2705 49.2075 24.2646V24.0083C49.2075 22.8706 49.0171 22.0601 48.6362 21.5767C48.2603 21.0884 47.6572 20.8442 46.8271 20.8442C46.1143 20.8442 45.5674 21.1226 45.1865 21.6792C44.8105 22.231 44.6226 23.0122 44.6226 24.0229C44.6226 25.0483 44.8105 25.8223 45.1865 26.3447C45.5625 26.8672 46.1143 27.1284 46.8418 27.1284Z" fill="white"/>
</svg>
