<svg width="137" height="44" viewBox="0 0 137 44" fill="none" xmlns="http://www.w3.org/2000/svg">
<rect width="137" height="44" rx="3" fill="#DC445D"/>
<path d="M38.4722 17.292H41.4971C42.918 17.292 43.9458 17.5044 44.5806 17.9292C45.2153 18.354 45.5327 19.0254 45.5327 19.9434C45.5327 20.5781 45.3545 21.103 44.998 21.5181C44.6465 21.9282 44.1313 22.1943 43.4526 22.3164V22.3896C45.0786 22.668 45.8916 23.5225 45.8916 24.9531C45.8916 25.9102 45.5669 26.6572 44.9175 27.1943C44.2729 27.7314 43.3696 28 42.2075 28H38.4722V17.292ZM39.7173 21.877H41.7681C42.647 21.877 43.2793 21.7402 43.665 21.4668C44.0508 21.1885 44.2437 20.7222 44.2437 20.0679C44.2437 19.4673 44.0288 19.0352 43.5991 18.7715C43.1694 18.5029 42.4858 18.3687 41.5483 18.3687H39.7173V21.877ZM39.7173 22.9316V26.938H41.9512C42.8154 26.938 43.4648 26.772 43.8994 26.4399C44.3389 26.103 44.5586 25.5781 44.5586 24.8652C44.5586 24.2012 44.334 23.7129 43.8848 23.4004C43.4404 23.0879 42.7617 22.9316 41.8486 22.9316H39.7173ZM49.1582 19.9727V25.1802C49.1582 25.8345 49.3071 26.3228 49.605 26.645C49.9028 26.9673 50.3691 27.1284 51.0039 27.1284C51.8438 27.1284 52.4565 26.8989 52.8423 26.4399C53.2329 25.981 53.4282 25.2314 53.4282 24.1914V19.9727H54.644V28H53.6406L53.4648 26.9233H53.3989C53.1499 27.3188 52.8032 27.6216 52.3589 27.8315C51.9194 28.0415 51.4165 28.1465 50.8501 28.1465C49.8735 28.1465 49.1411 27.9146 48.6528 27.4507C48.1694 26.9868 47.9277 26.2446 47.9277 25.2241V19.9727H49.1582ZM55.9551 19.9727H57.2588L59.0166 24.5503C59.4023 25.5952 59.6416 26.3496 59.7344 26.8135H59.793C59.8564 26.5645 59.9883 26.1396 60.1885 25.5391C60.3936 24.9336 61.0576 23.0781 62.1807 19.9727H63.4844L60.0347 29.1133C59.6929 30.0166 59.2925 30.6562 58.8335 31.0322C58.3794 31.4131 57.8203 31.6035 57.1562 31.6035C56.7852 31.6035 56.4189 31.562 56.0576 31.479V30.5049C56.3262 30.5635 56.6265 30.5928 56.9585 30.5928C57.7935 30.5928 58.3892 30.124 58.7456 29.1865L59.1924 28.0439L55.9551 19.9727ZM77.2319 28H75.811L69.959 19.0132H69.9004C69.9785 20.0679 70.0176 21.0347 70.0176 21.9136V28H68.8677V17.292H70.2739L76.1113 26.2422H76.1699C76.1602 26.1104 76.1382 25.688 76.104 24.9751C76.0698 24.2573 76.0576 23.7446 76.0674 23.437V17.292H77.2319V28ZM86.9219 23.979C86.9219 25.2876 86.5923 26.3105 85.9331 27.0479C85.2739 27.7803 84.3633 28.1465 83.2012 28.1465C82.4834 28.1465 81.8462 27.978 81.2896 27.6411C80.7329 27.3042 80.3032 26.8208 80.0005 26.1909C79.6978 25.561 79.5464 24.8237 79.5464 23.979C79.5464 22.6704 79.8735 21.6523 80.5278 20.9248C81.1821 20.1924 82.0903 19.8262 83.2524 19.8262C84.3755 19.8262 85.2666 20.1997 85.9258 20.9468C86.5898 21.6938 86.9219 22.7046 86.9219 23.979ZM80.8062 23.979C80.8062 25.0044 81.0112 25.7856 81.4214 26.3228C81.8315 26.8599 82.4346 27.1284 83.2305 27.1284C84.0264 27.1284 84.6294 26.8623 85.0396 26.3301C85.4546 25.793 85.6621 25.0093 85.6621 23.979C85.6621 22.9585 85.4546 22.1846 85.0396 21.6572C84.6294 21.125 84.0215 20.8589 83.2158 20.8589C82.4199 20.8589 81.8193 21.1201 81.4141 21.6426C81.0088 22.165 80.8062 22.9438 80.8062 23.979ZM95.6157 28L94.1436 23.2905C94.0508 23.0024 93.8774 22.3481 93.6235 21.3276H93.5649C93.3696 22.1821 93.1987 22.8413 93.0522 23.3052L91.5361 28H90.1299L87.9399 19.9727H89.2144C89.7319 21.9893 90.125 23.5249 90.3936 24.5796C90.667 25.6343 90.8232 26.3447 90.8623 26.7109H90.9209C90.9746 26.4326 91.0601 26.0737 91.1772 25.6343C91.2993 25.1899 91.4043 24.8384 91.4922 24.5796L92.9644 19.9727H94.2827L95.7183 24.5796C95.9917 25.4194 96.1772 26.125 96.2749 26.6963H96.3335C96.353 26.5205 96.4043 26.2495 96.4873 25.8833C96.5752 25.5171 97.0854 23.5469 98.0181 19.9727H99.2778L97.0586 28H95.6157Z" fill="white"/>
</svg>
