<svg width="40" height="44" viewBox="0 0 40 44" fill="none" xmlns="http://www.w3.org/2000/svg">
<rect width="40" height="44" rx="3" fill="#DC445D"/>
<path d="M16.4438 24.9298H16.4447C16.4455 24.9298 16.4462 24.9297 16.447 24.9297H27.0703C27.3318 24.9297 27.5618 24.7562 27.6337 24.5047L29.9774 16.3016C30.0279 16.1248 29.9925 15.9346 29.8819 15.7878C29.7711 15.6411 29.5979 15.5547 29.4141 15.5547H15.0925L14.6736 13.6698C14.614 13.4017 14.3762 13.2109 14.1016 13.2109H10.5859C10.2623 13.2109 10 13.4732 10 13.7969C10 14.1205 10.2623 14.3828 10.5859 14.3828H13.6316C13.7057 14.7168 15.636 23.403 15.7471 23.9028C15.1244 24.1735 14.6875 24.7943 14.6875 25.5156C14.6875 26.4849 15.4761 27.2734 16.4453 27.2734H27.0703C27.3939 27.2734 27.6562 27.0111 27.6562 26.6875C27.6562 26.3639 27.3939 26.1016 27.0703 26.1016H16.4453C16.1223 26.1016 15.8594 25.8387 15.8594 25.5156C15.8594 25.1931 16.1214 24.9306 16.4438 24.9298ZM28.6372 16.7266L26.6283 23.7578H16.9153L15.3528 16.7266H28.6372Z" fill="white"/>
<path d="M15.8594 29.0312C15.8594 30.0005 16.6479 30.7891 17.6172 30.7891C18.5864 30.7891 19.375 30.0005 19.375 29.0312C19.375 28.062 18.5864 27.2734 17.6172 27.2734C16.6479 27.2734 15.8594 28.062 15.8594 29.0312ZM17.6172 28.4453C17.9402 28.4453 18.2031 28.7082 18.2031 29.0312C18.2031 29.3543 17.9402 29.6172 17.6172 29.6172C17.2942 29.6172 17.0312 29.3543 17.0312 29.0312C17.0312 28.7082 17.2942 28.4453 17.6172 28.4453Z" fill="white"/>
<path d="M24.1406 29.0312C24.1406 30.0005 24.9292 30.7891 25.8984 30.7891C26.8677 30.7891 27.6562 30.0005 27.6562 29.0312C27.6562 28.062 26.8677 27.2734 25.8984 27.2734C24.9292 27.2734 24.1406 28.062 24.1406 29.0312ZM25.8984 28.4453C26.2215 28.4453 26.4844 28.7082 26.4844 29.0312C26.4844 29.3543 26.2215 29.6172 25.8984 29.6172C25.5754 29.6172 25.3125 29.3543 25.3125 29.0312C25.3125 28.7082 25.5754 28.4453 25.8984 28.4453Z" fill="white"/>
</svg>
