<svg width="100" height="100" viewBox="0 0 100 100" fill="none" xmlns="http://www.w3.org/2000/svg">
<g clip-path="url(#clip0)">
<path d="M93.3507 51.2954C92.9484 50.4721 92.9484 49.528 93.3507 48.705L97.0804 41.0751C99.1569 36.8269 97.5116 31.7635 93.3347 29.5473L85.8328 25.5668C85.0234 25.1375 84.4685 24.3735 84.3101 23.4713L82.843 15.1063C82.026 10.4489 77.7178 7.31925 73.0368 7.98155L64.628 9.171C63.7204 9.29912 62.823 9.00733 62.1646 8.37042L56.0609 2.46576C52.6623 -0.822108 47.3381 -0.822304 43.9397 2.46576L37.8358 8.371C37.1772 9.00811 36.2798 9.29932 35.3723 9.17159L26.9636 7.98214C22.281 7.31945 17.9744 10.4495 17.1574 15.1069L15.6902 23.4715C15.5318 24.3738 14.977 25.1377 14.1678 25.5672L6.66587 29.5476C2.48894 31.7636 0.843636 36.8275 2.92019 41.0757L6.64966 48.7053C7.052 49.5286 7.052 50.4727 6.64966 51.2958L2.91999 58.9254C0.843441 63.1736 2.48874 68.2371 6.66567 70.4533L14.1676 74.4337C14.977 74.863 15.5318 75.6271 15.6902 76.5292L17.1574 84.8942C17.9012 89.134 21.5367 92.1074 25.715 92.107C26.1265 92.107 26.5441 92.0781 26.9638 92.0188L35.3725 90.8293C36.2794 90.7006 37.1774 90.993 37.836 91.6299L43.9397 97.5346C45.6393 99.1787 47.8193 100.001 50.0002 100C52.1804 100 54.3619 99.1783 56.0607 97.5346L62.1646 91.6299C62.8232 90.993 63.7208 90.702 64.628 90.8293L73.0368 92.0188C77.7199 92.6813 82.026 89.5514 82.843 84.894L84.3103 76.5294C84.4687 75.6271 85.0236 74.8632 85.8328 74.4337L93.3347 70.4533C97.5116 68.2373 99.1569 63.1734 97.0804 58.9252L93.3507 51.2954ZM90.6314 65.3582L83.1295 69.3386C80.7377 70.608 79.0973 72.8654 78.6295 75.5325L77.1623 83.8973C76.886 85.4731 75.4291 86.5315 73.8446 86.3079L65.4358 85.1184C62.7542 84.7385 60.1007 85.6016 58.1544 87.4842L52.0506 93.3887C50.901 94.5008 49.0996 94.5008 47.9496 93.3887L41.8459 87.484C40.201 85.8928 38.0506 85.0305 35.8057 85.0305C35.3944 85.0305 34.9798 85.0594 34.5645 85.1182L26.1558 86.3077C24.5726 86.5315 23.1146 85.4729 22.838 83.8971L21.3707 75.5322C20.9027 72.865 19.2625 70.6074 16.8705 69.3384L9.36859 65.358C7.95531 64.6082 7.39868 62.8951 8.10121 61.4578L11.8309 53.828C13.0199 51.3952 13.0199 48.605 11.8309 46.1722L8.10121 38.5423C7.39868 37.105 7.95531 35.3919 9.36859 34.6421L16.8705 30.6617C19.2623 29.3924 20.9027 27.135 21.3705 24.4678L22.8376 16.103C23.1142 14.5272 24.5708 13.4686 26.1554 13.6925L34.5641 14.8819C37.2448 15.2614 39.8993 14.3987 41.8455 12.5161L47.9494 6.61144C49.099 5.49934 50.9004 5.49934 52.0504 6.61144L58.154 12.5161C60.1003 14.3989 62.7544 15.2614 65.4354 14.8819L73.8442 13.6925C75.4276 13.4684 76.8856 14.5272 77.1619 16.103L78.6291 24.468C79.0971 27.1352 80.7373 29.3928 83.1293 30.6617L90.6312 34.6421C92.0445 35.3919 92.6011 37.105 91.8986 38.5423L88.1689 46.172C86.9798 48.6046 86.9798 51.3952 88.1689 53.8278L91.8986 61.4574C92.6013 62.8951 92.0447 64.6084 90.6314 65.3582Z" fill="white"/>
<path d="M71.0711 28.9287C69.9451 27.8026 68.1189 27.8026 66.9928 28.9287L28.9287 66.993C27.8026 68.1191 27.8026 69.9451 28.9287 71.0713C29.4918 71.6343 30.2299 71.916 30.9678 71.916C31.7057 71.916 32.4439 71.6345 33.0068 71.0713L71.0709 33.0072C72.1974 31.8809 72.1974 30.0551 71.0711 28.9287Z" fill="white"/>
<path d="M38.4648 24.046C32.6344 24.046 27.8909 28.7895 27.8909 34.6199C27.8909 40.4504 32.6344 45.1939 38.4648 45.1939C44.2953 45.1939 49.0388 40.4504 49.0388 34.6199C49.0388 28.7895 44.2953 24.046 38.4648 24.046ZM38.4648 39.4261C35.8146 39.4261 33.6586 37.2701 33.6586 34.6197C33.6586 31.9695 35.8146 29.8135 38.4648 29.8135C41.115 29.8135 43.2712 31.9695 43.2712 34.6197C43.2711 37.2701 41.115 39.4261 38.4648 39.4261Z" fill="white"/>
<path d="M61.5353 54.8063C55.7048 54.8063 50.9613 59.5499 50.9613 65.3803C50.9613 71.2107 55.7048 75.9543 61.5353 75.9543C67.3657 75.9543 72.1092 71.2107 72.1092 65.3803C72.1092 59.5499 67.3657 54.8063 61.5353 54.8063ZM61.5353 70.1865C58.8851 70.1865 56.7288 68.0305 56.7288 65.3803C56.7288 62.7301 58.8849 60.5741 61.5353 60.5741C64.1854 60.5741 66.3415 62.7301 66.3415 65.3803C66.3415 68.0305 64.1854 70.1865 61.5353 70.1865Z" fill="white"/>
</g>
<defs>
<clipPath id="clip0">
<rect width="100" height="100" fill="white"/>
</clipPath>
</defs>
</svg>
