<svg width="22" height="22" viewBox="0 0 22 22" fill="none" xmlns="http://www.w3.org/2000/svg">
<path fill-rule="evenodd" clip-rule="evenodd" d="M10.6468 0C7.77714 0 7.41701 0.0126116 6.28994 0.0641642C5.16506 0.115938 4.39725 0.294934 3.72541 0.557565C3.03045 0.828825 2.44094 1.19168 1.85363 1.78222C1.26588 2.37253 0.904862 2.96505 0.634101 3.66334C0.372144 4.33883 0.193838 5.11079 0.143208 6.24097C0.0927977 7.3738 0.0795898 7.73599 0.0795898 10.6203C0.0795898 13.5046 0.0923575 13.8654 0.143428 14.9983C0.195159 16.1289 0.373245 16.9006 0.634321 17.5759C0.904422 18.2744 1.26544 18.8669 1.85297 19.4573C2.44006 20.048 3.02957 20.4118 3.72408 20.683C4.39637 20.9456 5.1644 21.1246 6.28906 21.1764C7.41613 21.228 7.77604 21.2406 10.6455 21.2406C13.5153 21.2406 13.8743 21.228 15.0014 21.1764C16.1263 21.1246 16.895 20.9456 17.5673 20.683C18.262 20.4118 18.8506 20.048 19.4377 19.4573C20.0255 18.8669 20.3865 18.2744 20.6572 17.5761C20.917 16.9006 21.0953 16.1287 21.1481 14.9985C21.1988 13.8657 21.212 13.5046 21.212 10.6203C21.212 7.73599 21.1988 7.37402 21.1481 6.24119C21.0953 5.11057 20.917 4.33883 20.6572 3.66356C20.3865 2.96505 20.0255 2.37253 19.4377 1.78222C18.85 1.19146 18.2622 0.828604 17.5666 0.557565C16.893 0.294934 16.1247 0.115938 14.9999 0.0641642C13.8728 0.0126116 13.514 0 10.6435 0H10.6468ZM9.69908 1.91367C9.9804 1.91323 10.2943 1.91367 10.647 1.91367C13.4681 1.91367 13.8025 1.92385 14.9166 1.97474C15.9468 2.02209 16.5059 2.19512 16.8784 2.34048C17.3715 2.53298 17.723 2.76309 18.0926 3.13481C18.4625 3.50653 18.6914 3.86054 18.8833 4.35617C19.028 4.7301 19.2003 5.2921 19.2472 6.3276C19.2978 7.44717 19.3088 7.78349 19.3088 10.6178C19.3088 13.4522 19.2978 13.7885 19.2472 14.9081C19.2001 15.9436 19.028 16.5056 18.8833 16.8795C18.6918 17.3751 18.4625 17.728 18.0926 18.0995C17.7228 18.4712 17.3717 18.7014 16.8784 18.8939C16.5064 19.0399 15.9468 19.2125 14.9166 19.2598C13.8027 19.3107 13.4681 19.3218 10.647 19.3218C7.82555 19.3218 7.49117 19.3107 6.37731 19.2598C5.34711 19.212 4.78798 19.039 4.4153 18.8936C3.92221 18.7011 3.57 18.471 3.20018 18.0993C2.83036 17.7276 2.60143 17.3745 2.40947 16.8786C2.26485 16.5047 2.09248 15.9427 2.0456 14.9072C1.99497 13.7876 1.98484 13.4513 1.98484 10.6152C1.98484 7.77906 1.99497 7.44452 2.0456 6.32494C2.0927 5.28944 2.26485 4.72744 2.40947 4.35307C2.60098 3.85745 2.83036 3.50343 3.20018 3.13171C3.57 2.75999 3.92221 2.52988 4.4153 2.33694C4.78776 2.19091 5.34711 2.01833 6.37731 1.97076C7.35205 1.92651 7.72979 1.91323 9.69908 1.91102V1.91367ZM16.2871 3.67745C15.5871 3.67745 15.0192 4.24766 15.0192 4.95152C15.0192 5.65515 15.5871 6.22603 16.2871 6.22603C16.9871 6.22603 17.555 5.65515 17.555 4.95152C17.555 4.24788 16.9871 3.677 16.2871 3.677V3.67745ZM10.6468 5.16644C7.65022 5.16644 5.22065 7.60851 5.22065 10.6205C5.22065 13.6326 7.65022 16.0735 10.6468 16.0735C13.6435 16.0735 16.0721 13.6326 16.0721 10.6205C16.0721 7.60851 13.6432 5.16644 10.6466 5.16644H10.6468ZM10.6466 7.08015C12.5917 7.08015 14.1687 8.66508 14.1687 10.6204C14.1687 12.5755 12.5917 14.1607 10.6466 14.1607C8.70126 14.1607 7.12445 12.5755 7.12445 10.6204C7.12445 8.66508 8.70126 7.08015 10.6466 7.08015Z" fill="white"/>
</svg>
