<svg width="332" height="48" viewBox="0 0 332 48" fill="none" xmlns="http://www.w3.org/2000/svg">
<rect width="332" height="48" rx="3" fill="#5187D2"/>
<path d="M84.5078 30V18.5781H86.375V28.3984H91.2109V30H84.5078ZM100.808 25.6641C100.808 27.0755 100.446 28.1771 99.7225 28.9688C98.9985 29.7604 97.9907 30.1562 96.6991 30.1562C95.8918 30.1562 95.1782 29.974 94.5584 29.6094C93.9386 29.2448 93.4621 28.7214 93.1287 28.0391C92.7954 27.3568 92.6287 26.5651 92.6287 25.6641C92.6287 24.263 92.9881 23.1693 93.7069 22.3828C94.4256 21.5964 95.4386 21.2031 96.7459 21.2031C97.9959 21.2031 98.9855 21.6068 99.7147 22.4141C100.444 23.2161 100.808 24.2995 100.808 25.6641ZM94.5194 25.6641C94.5194 27.6589 95.2564 28.6562 96.7303 28.6562C98.1886 28.6562 98.9178 27.6589 98.9178 25.6641C98.9178 23.6901 98.1834 22.7031 96.7147 22.7031C95.9439 22.7031 95.384 22.9583 95.035 23.4688C94.6912 23.9792 94.5194 24.7109 94.5194 25.6641ZM110.382 21.3594V22.3672L108.906 22.6406C109.041 22.8229 109.153 23.0469 109.242 23.3125C109.33 23.5781 109.375 23.8594 109.375 24.1562C109.375 25.0469 109.067 25.7474 108.453 26.2578C107.838 26.7682 106.992 27.0234 105.914 27.0234C105.638 27.0234 105.388 27.0026 105.164 26.9609C104.768 27.2057 104.57 27.4922 104.57 27.8203C104.57 28.0182 104.661 28.1667 104.843 28.2656C105.031 28.3646 105.372 28.4141 105.867 28.4141H107.375C108.328 28.4141 109.052 28.6172 109.547 29.0234C110.041 29.4297 110.289 30.0156 110.289 30.7812C110.289 31.7604 109.885 32.5156 109.078 33.0469C108.271 33.5781 107.104 33.8438 105.578 33.8438C104.401 33.8438 103.502 33.6354 102.882 33.2188C102.263 32.8021 101.953 32.2083 101.953 31.4375C101.953 30.9062 102.119 30.4583 102.453 30.0938C102.791 29.7344 103.263 29.4844 103.867 29.3438C103.622 29.2396 103.419 29.0729 103.257 28.8438C103.101 28.6094 103.023 28.3646 103.023 28.1094C103.023 27.7865 103.114 27.513 103.297 27.2891C103.479 27.0651 103.75 26.8438 104.109 26.625C103.661 26.4323 103.297 26.1198 103.015 25.6875C102.739 25.25 102.601 24.7396 102.601 24.1562C102.601 23.2188 102.896 22.4922 103.484 21.9766C104.078 21.4609 104.922 21.2031 106.015 21.2031C106.26 21.2031 106.515 21.2214 106.781 21.2578C107.052 21.2891 107.255 21.3229 107.39 21.3594H110.382ZM103.593 31.3438C103.593 31.7396 103.771 32.0443 104.125 32.2578C104.484 32.4714 104.987 32.5781 105.632 32.5781C106.632 32.5781 107.377 32.4349 107.867 32.1484C108.356 31.862 108.601 31.4818 108.601 31.0078C108.601 30.6328 108.466 30.3646 108.195 30.2031C107.929 30.0469 107.432 29.9688 106.703 29.9688H105.312C104.786 29.9688 104.367 30.0911 104.054 30.3359C103.747 30.5859 103.593 30.9219 103.593 31.3438ZM104.382 24.1562C104.382 24.6979 104.521 25.1146 104.797 25.4062C105.078 25.6979 105.479 25.8438 106 25.8438C107.062 25.8438 107.593 25.276 107.593 24.1406C107.593 23.5781 107.461 23.1458 107.195 22.8438C106.935 22.5365 106.536 22.3828 106 22.3828C105.468 22.3828 105.065 22.5339 104.789 22.8359C104.518 23.138 104.382 23.5781 104.382 24.1562ZM118.304 30H116.468V21.3594H118.304V30ZM116.359 19.0703C116.359 18.7422 116.447 18.4896 116.624 18.3125C116.807 18.1354 117.064 18.0469 117.398 18.0469C117.721 18.0469 117.971 18.1354 118.148 18.3125C118.33 18.4896 118.421 18.7422 118.421 19.0703C118.421 19.3828 118.33 19.6302 118.148 19.8125C117.971 19.9896 117.721 20.0781 117.398 20.0781C117.064 20.0781 116.807 19.9896 116.624 19.8125C116.447 19.6302 116.359 19.3828 116.359 19.0703ZM128.698 30H126.855V24.6875C126.855 24.0208 126.719 23.5234 126.448 23.1953C126.183 22.8672 125.758 22.7031 125.175 22.7031C124.399 22.7031 123.831 22.9323 123.472 23.3906C123.112 23.849 122.933 24.6172 122.933 25.6953V30H121.097V21.3594H122.534L122.792 22.4922H122.886C123.146 22.0807 123.516 21.763 123.995 21.5391C124.474 21.3151 125.006 21.2031 125.589 21.2031C127.662 21.2031 128.698 22.2578 128.698 24.3672V30ZM142.815 30L141.698 25.9688C141.563 25.5417 141.318 24.5495 140.964 22.9922H140.893C140.591 24.3984 140.352 25.3958 140.175 25.9844L139.026 30H136.995L134.573 21.3594H136.448L137.55 25.6172C137.8 26.6693 137.977 27.5703 138.081 28.3203H138.128C138.18 27.9401 138.258 27.5052 138.362 27.0156C138.472 26.5208 138.565 26.151 138.643 25.9062L139.956 21.3594H141.972L143.245 25.9062C143.323 26.1615 143.419 26.5521 143.534 27.0781C143.654 27.6042 143.724 28.013 143.745 28.3047H143.807C143.886 27.6641 144.068 26.7682 144.354 25.6172L145.472 21.3594H147.315L144.878 30H142.815ZM150.803 30H148.967V21.3594H150.803V30ZM148.858 19.0703C148.858 18.7422 148.947 18.4896 149.124 18.3125C149.306 18.1354 149.564 18.0469 149.897 18.0469C150.22 18.0469 150.47 18.1354 150.647 18.3125C150.829 18.4896 150.921 18.7422 150.921 19.0703C150.921 19.3828 150.829 19.6302 150.647 19.8125C150.47 19.9896 150.22 20.0781 149.897 20.0781C149.564 20.0781 149.306 19.9896 149.124 19.8125C148.947 19.6302 148.858 19.3828 148.858 19.0703ZM156.815 28.6719C157.263 28.6719 157.711 28.6016 158.159 28.4609V29.8438C157.956 29.9323 157.693 30.0052 157.37 30.0625C157.052 30.125 156.721 30.1562 156.378 30.1562C154.638 30.1562 153.768 29.2396 153.768 27.4062V22.75H152.588V21.9375L153.854 21.2656L154.479 19.4375H155.612V21.3594H158.073V22.75H155.612V27.375C155.612 27.8177 155.721 28.1458 155.94 28.3594C156.164 28.5677 156.456 28.6719 156.815 28.6719ZM167.655 30H165.811V24.6875C165.811 24.0208 165.676 23.5234 165.405 23.1953C165.139 22.8672 164.715 22.7031 164.131 22.7031C163.36 22.7031 162.793 22.9349 162.428 23.3984C162.069 23.8568 161.889 24.6276 161.889 25.7109V30H160.053V17.8438H161.889V20.9297C161.889 21.4245 161.858 21.9531 161.795 22.5156H161.912C162.162 22.099 162.509 21.776 162.952 21.5469C163.399 21.3177 163.92 21.2031 164.514 21.2031C166.608 21.2031 167.655 22.2578 167.655 24.3672V30ZM176.732 30H174.881V18.5781H181.326V20.1562H176.732V23.7266H181.037V25.3125H176.732V30ZM188.768 30L188.4 28.7969H188.338C187.921 29.3229 187.502 29.6823 187.08 29.875C186.658 30.0625 186.116 30.1562 185.455 30.1562C184.606 30.1562 183.942 29.9271 183.463 29.4688C182.989 29.0104 182.752 28.362 182.752 27.5234C182.752 26.6328 183.083 25.9609 183.744 25.5078C184.406 25.0547 185.413 24.8073 186.768 24.7656L188.26 24.7188V24.2578C188.26 23.7057 188.129 23.2943 187.869 23.0234C187.614 22.7474 187.215 22.6094 186.674 22.6094C186.231 22.6094 185.807 22.6745 185.4 22.8047C184.994 22.9349 184.603 23.0885 184.228 23.2656L183.635 21.9531C184.103 21.7083 184.616 21.5234 185.174 21.3984C185.731 21.2682 186.257 21.2031 186.752 21.2031C187.851 21.2031 188.679 21.4427 189.236 21.9219C189.799 22.401 190.08 23.1536 190.08 24.1797V30H188.768ZM186.033 28.75C186.7 28.75 187.234 28.5651 187.635 28.1953C188.041 27.8203 188.244 27.2969 188.244 26.625V25.875L187.135 25.9219C186.27 25.9531 185.64 26.099 185.244 26.3594C184.853 26.6146 184.658 27.0078 184.658 27.5391C184.658 27.9245 184.773 28.224 185.002 28.4375C185.231 28.6458 185.575 28.75 186.033 28.75ZM196.287 30.1562C194.98 30.1562 193.985 29.776 193.302 29.0156C192.625 28.25 192.287 27.1536 192.287 25.7266C192.287 24.2734 192.641 23.1562 193.349 22.375C194.063 21.5938 195.092 21.2031 196.435 21.2031C197.347 21.2031 198.167 21.3724 198.896 21.7109L198.342 23.1875C197.566 22.8854 196.925 22.7344 196.42 22.7344C194.925 22.7344 194.177 23.7266 194.177 25.7109C194.177 26.6797 194.362 27.4089 194.732 27.8984C195.107 28.3828 195.654 28.625 196.373 28.625C197.191 28.625 197.964 28.4219 198.693 28.0156V29.6172C198.365 29.8099 198.013 29.9479 197.638 30.0312C197.269 30.1146 196.818 30.1562 196.287 30.1562ZM204.658 30.1562C203.314 30.1562 202.262 29.7656 201.502 28.9844C200.746 28.1979 200.369 27.1172 200.369 25.7422C200.369 24.3307 200.72 23.2214 201.423 22.4141C202.127 21.6068 203.093 21.2031 204.322 21.2031C205.463 21.2031 206.364 21.5495 207.025 22.2422C207.686 22.9349 208.017 23.888 208.017 25.1016V26.0938H202.259C202.285 26.9323 202.512 27.5781 202.939 28.0312C203.366 28.4792 203.968 28.7031 204.744 28.7031C205.254 28.7031 205.728 28.6562 206.166 28.5625C206.608 28.4635 207.082 28.3021 207.588 28.0781V29.5703C207.14 29.7839 206.686 29.9349 206.228 30.0234C205.77 30.112 205.246 30.1562 204.658 30.1562ZM204.322 22.5938C203.739 22.5938 203.27 22.7786 202.916 23.1484C202.567 23.5182 202.358 24.0573 202.291 24.7656H206.213C206.202 24.0521 206.03 23.513 205.697 23.1484C205.364 22.7786 204.905 22.5938 204.322 22.5938ZM214.677 21.2031C215.755 21.2031 216.594 21.5938 217.193 22.375C217.797 23.1562 218.099 24.2526 218.099 25.6641C218.099 27.0807 217.794 28.1849 217.185 28.9766C216.576 29.763 215.729 30.1562 214.646 30.1562C213.552 30.1562 212.703 29.763 212.099 28.9766H211.974L211.638 30H210.263V17.8438H212.099V20.7344C212.099 20.9479 212.089 21.2656 212.068 21.6875C212.047 22.1094 212.031 22.3776 212.021 22.4922H212.099C212.682 21.6328 213.542 21.2031 214.677 21.2031ZM214.201 22.7031C213.461 22.7031 212.927 22.9219 212.599 23.3594C212.276 23.7917 212.109 24.5182 212.099 25.5391V25.6641C212.099 26.7161 212.266 27.4792 212.599 27.9531C212.932 28.4219 213.477 28.6562 214.232 28.6562C214.883 28.6562 215.375 28.3984 215.708 27.8828C216.047 27.3672 216.216 26.6224 216.216 25.6484C216.216 23.6849 215.544 22.7031 214.201 22.7031ZM228.056 25.6641C228.056 27.0755 227.694 28.1771 226.97 28.9688C226.246 29.7604 225.238 30.1562 223.947 30.1562C223.139 30.1562 222.426 29.974 221.806 29.6094C221.186 29.2448 220.71 28.7214 220.376 28.0391C220.043 27.3568 219.876 26.5651 219.876 25.6641C219.876 24.263 220.236 23.1693 220.954 22.3828C221.673 21.5964 222.686 21.2031 223.993 21.2031C225.243 21.2031 226.233 21.6068 226.962 22.4141C227.691 23.2161 228.056 24.2995 228.056 25.6641ZM221.767 25.6641C221.767 27.6589 222.504 28.6562 223.978 28.6562C225.436 28.6562 226.165 27.6589 226.165 25.6641C226.165 23.6901 225.431 22.7031 223.962 22.7031C223.191 22.7031 222.631 22.9583 222.283 23.4688C221.939 23.9792 221.767 24.7109 221.767 25.6641ZM237.997 25.6641C237.997 27.0755 237.635 28.1771 236.911 28.9688C236.187 29.7604 235.179 30.1562 233.888 30.1562C233.081 30.1562 232.367 29.974 231.747 29.6094C231.127 29.2448 230.651 28.7214 230.318 28.0391C229.984 27.3568 229.818 26.5651 229.818 25.6641C229.818 24.263 230.177 23.1693 230.896 22.3828C231.614 21.5964 232.627 21.2031 233.935 21.2031C235.185 21.2031 236.174 21.6068 236.903 22.4141C237.633 23.2161 237.997 24.2995 237.997 25.6641ZM231.708 25.6641C231.708 27.6589 232.445 28.6562 233.919 28.6562C235.377 28.6562 236.107 27.6589 236.107 25.6641C236.107 23.6901 235.372 22.7031 233.903 22.7031C233.133 22.7031 232.573 22.9583 232.224 23.4688C231.88 23.9792 231.708 24.7109 231.708 25.6641ZM242.048 25.4375L243.087 24.1406L245.696 21.3594H247.813L244.337 25.0703L248.032 30H245.876L243.102 26.2109L242.095 27.0391V30H240.274V17.8438H242.095V23.7734L242.001 25.4375H242.048Z" fill="white"/>
</svg>
