<svg width="27" height="15" viewBox="0 0 27 15" fill="none" xmlns="http://www.w3.org/2000/svg">
<path d="M14.2363 10.8C7.18733 10.8 1.47266 9.34595 1.47266 7.85457V11.289C1.47658 12.7794 7.18929 14.2364 14.2363 14.2364C21.2833 14.2364 26.996 12.7794 26.9999 11.289V7.85457C26.9999 9.34595 21.2853 10.8 14.2363 10.8Z" fill="#E4AF18"/>
<path d="M12.7636 5.39998C5.71467 5.39998 0 3.94591 0 2.45453V5.88893C0.00392727 7.37933 5.71664 8.83635 12.7636 8.83635C19.8106 8.83635 25.5233 7.37933 25.5273 5.88893V2.45453C25.5273 3.94591 19.8126 5.39998 12.7636 5.39998Z" fill="#F4BF1A"/>
<path d="M1.96338 3.96361V7.39752C2.26185 7.50748 2.5888 7.61303 2.9452 7.71464V4.28024C2.5888 4.17912 2.26185 4.07308 1.96338 3.96361Z" fill="#DCA815"/>
<path d="M22.5815 4.28024V7.71464C22.9379 7.61352 23.2649 7.50748 23.5634 7.39752V3.96361C23.2649 4.07357 22.9379 4.17912 22.5815 4.28024Z" fill="#DCA815"/>
<path d="M4.41846 4.63666V8.07155C4.73264 8.13684 5.06008 8.19869 5.40028 8.25711V4.82222C5.06008 4.7638 4.73264 4.70195 4.41846 4.63666Z" fill="#DCA815"/>
<path d="M20.1274 4.82222V8.2576C20.4676 8.19869 20.7951 8.13684 21.1093 8.07155V4.63666C20.7951 4.70195 20.4676 4.7638 20.1274 4.82222Z" fill="#DCA815"/>
<path d="M6.87256 5.04166V8.47704C7.19263 8.51828 7.51909 8.55657 7.85438 8.59093V5.15555C7.51909 5.12069 7.19263 5.0824 6.87256 5.04166Z" fill="#DCA815"/>
<path d="M17.6729 5.15506V8.59093C18.0081 8.55607 18.3346 8.51778 18.6547 8.47704V5.04166C18.3346 5.08289 18.0081 5.12118 17.6729 5.15506Z" fill="#DCA815"/>
<path d="M9.32715 5.28168V8.71755C9.64968 8.74013 9.97662 8.76026 10.309 8.77646V5.3401C9.97662 5.3239 9.64968 5.30426 9.32715 5.28168Z" fill="#DCA815"/>
<path d="M15.2183 5.3401V8.77646C15.5506 8.76026 15.8776 8.74013 16.2001 8.71755V5.28168C15.8776 5.30426 15.5506 5.3239 15.2183 5.3401Z" fill="#DCA815"/>
<path d="M12.7639 5.40003C12.5994 5.40003 12.4359 5.39855 12.2729 5.39708V8.83344C12.4359 8.83492 12.5994 8.83639 12.7639 8.83639C12.9283 8.83639 13.0918 8.83492 13.2548 8.83344V5.39708C13.0918 5.39855 12.9283 5.40003 12.7639 5.40003Z" fill="#DCA815"/>
<path d="M3.43652 9.3636V12.7975C3.735 12.9075 4.06194 13.013 4.41834 13.1146V9.68024C4.06194 9.57911 3.735 9.47307 3.43652 9.3636Z" fill="#C49214"/>
<path d="M24.0547 9.68024V13.1146C24.4111 13.0135 24.738 12.9075 25.0365 12.7975V9.3636C24.738 9.47357 24.4111 9.57911 24.0547 9.68024Z" fill="#C49214"/>
<path d="M5.89111 10.0366V13.4715C6.2053 13.5368 6.53273 13.5987 6.87293 13.6571V10.2222C6.53273 10.1638 6.2053 10.1019 5.89111 10.0366Z" fill="#C49214"/>
<path d="M21.6001 10.2222V13.6576C21.9403 13.5987 22.2677 13.5368 22.5819 13.4715V10.0366C22.2677 10.1019 21.9403 10.1638 21.6001 10.2222Z" fill="#C49214"/>
<path d="M8.34521 10.4417V13.877C8.66529 13.9183 8.99174 13.9566 9.32703 13.9909V10.5555C8.99174 10.5207 8.66529 10.4824 8.34521 10.4417Z" fill="#C49214"/>
<path d="M19.1455 10.555V13.9909C19.4808 13.9561 19.8073 13.9178 20.1273 13.877V10.4417C19.8073 10.4829 19.4808 10.5212 19.1455 10.555Z" fill="#C49214"/>
<path d="M10.8003 10.6817V14.1175C11.1228 14.1401 11.4498 14.1603 11.7821 14.1765V10.7401C11.4498 10.7239 11.1228 10.7043 10.8003 10.6817Z" fill="#C49214"/>
<path d="M16.6909 10.7401V14.1765C17.0233 14.1603 17.3502 14.1401 17.6727 14.1175V10.6817C17.3502 10.7043 17.0233 10.7239 16.6909 10.7401Z" fill="#C49214"/>
<path d="M14.2365 10.8C14.0721 10.8 13.9086 10.7985 13.7456 10.7971V14.2334C13.9086 14.2349 14.0721 14.2364 14.2365 14.2364C14.401 14.2364 14.5644 14.2349 14.7274 14.2334V10.7971C14.5644 10.7985 14.401 10.8 14.2365 10.8Z" fill="#C49214"/>
<path d="M25.1404 6.56445C23.7462 7.79074 18.7345 8.83638 12.7636 8.83638C8.09502 8.83638 4.01409 8.19673 1.7888 7.33174C1.58409 7.51731 1.47266 7.71367 1.47266 7.91838C1.47266 9.40976 7.18733 10.8 14.2363 10.8C21.2857 10.8 26.9999 9.40976 26.9999 7.91838C26.9999 7.4044 26.32 6.94491 25.1404 6.56445Z" fill="#FCC62D"/>
<path d="M15.7091 3.43635C9.22271 3.43635 3.87033 2.20172 3.0564 0.84288C1.15216 1.27439 0 1.84924 0 2.51835C0 4.00924 5.71467 5.39999 12.7636 5.39999C19.8126 5.39999 25.5273 4.00924 25.5273 2.51835C25.5273 2.45257 25.5125 2.38826 25.4905 2.32444C23.1493 2.98324 19.6373 3.43635 15.7091 3.43635Z" fill="#FFD949"/>
<path d="M25.5273 2.51836C25.5273 4.00925 19.8126 5.4 12.7636 5.4C5.71467 5.4 0 4.00925 0 2.51836C0 1.02698 5.71467 0 12.7636 0C19.8126 0 25.5273 1.02698 25.5273 2.51836Z" fill="#FFD949"/>
</svg>
