<svg width="100" height="100" viewBox="0 0 100 100" fill="none" xmlns="http://www.w3.org/2000/svg">
<path d="M34.1072 76.999V58.6645H30V53.1717H34.1072V47.8273H30V42.3343H34.1072V24H45.2249L50.7483 42.3343H57.1923V24H65.0527V42.3343H69.0889V47.8273H65.0527V53.1717H69.0889V58.6645H65.0527V76.999H53.8641L48.1991 58.6645H41.9675V76.999H34.1072ZM41.6842 42.3343H43.6669L41.6134 35.2085H41.3301L41.6842 42.3343ZM41.9675 53.1717H46.6412L45.0832 47.8273H41.8258L41.9675 53.1717ZM54.0765 53.1717H57.334L57.1923 47.8273H52.4479L54.0765 53.1717ZM57.4048 65.4193H57.7588L57.4756 58.6645H55.5636L57.4048 65.4193Z" fill="white"/>
<path d="M50 96C75.4051 96 96 75.4051 96 50C96 24.5949 75.4051 4 50 4C24.5949 4 4 24.5949 4 50C4 75.4051 24.5949 96 50 96Z" stroke="white" stroke-width="8"/>
</svg>
