<svg width="100" height="100" viewBox="0 0 100 100" fill="none" xmlns="http://www.w3.org/2000/svg">
<g clip-path="url(#clip0)">
<path d="M11.2974 64.975C10.1674 61.3025 9.60118 57.3463 9.60118 53.3925C9.60118 36.16 21.1849 21.47 37.2862 16.6662V21.47L58.4762 10.735L37.2875 0V7.6275C16.6649 12.995 1.12744 31.3575 1.12744 53.3925C1.12744 56.4988 1.4112 59.6075 1.97494 62.4325L2.82244 57.9125L11.2974 64.975Z" fill="white"/>
<path d="M80.5087 60.1713L79.0962 83.9013L98.8725 70.9075L92.3775 66.9487C93.7887 62.715 94.3525 58.195 94.3525 53.3887C94.3525 33.0513 81.0762 15.8175 62.9962 9.31998L66.3862 11.8625L56.2188 16.1C73.165 20.055 85.8787 35.31 85.8787 53.3887C85.8787 56.4975 85.3137 59.6037 84.7487 62.4287L80.5087 60.1713Z" fill="white"/>
<path d="M75.9887 79.0988C68.9236 86.7275 59.0399 91.53 47.7399 91.53C37.5712 91.53 28.2474 87.2913 21.4674 80.795L25.7049 78.5338L5.93115 65.5388L7.34239 89.2688L13.8399 85.3125C22.3149 94.3525 34.4637 100 47.7399 100C59.3237 100 69.7774 95.765 77.9674 88.7012L74.5774 89.8312L75.9887 79.0988Z" fill="white"/>
<path d="M34.1072 75V57.703H30V52.521H34.1072V47.479H30V42.2969H34.1072V25H45.2249L50.7483 42.2969H57.1923V25H65.0527V42.2969H69.0889V47.479H65.0527V52.521H69.0889V57.703H65.0527V75H53.8641L48.1991 57.703H41.9675V75H34.1072ZM41.6842 42.2969H43.6669L41.6134 35.5742H41.3301L41.6842 42.2969ZM41.9675 52.521H46.6412L45.0832 47.479H41.8258L41.9675 52.521ZM54.0765 52.521H57.334L57.1923 47.479H52.4479L54.0765 52.521ZM57.4048 64.0756H57.7588L57.4756 57.703H55.5636L57.4048 64.0756Z" fill="white"/>
</g>
<defs>
<clipPath id="clip0">
<rect width="100" height="100" fill="white"/>
</clipPath>
</defs>
</svg>
