<svg width="50" height="50" viewBox="0 0 50 50" fill="none" xmlns="http://www.w3.org/2000/svg">
<path d="M35.7143 31.4286H33.4286L32.5715 30.5714C35.4287 27.4286 37.143 23.1429 37.143 18.5714C37.1429 8.28571 28.8571 0 18.5714 0C8.28571 0 0 8.28571 0 18.5714C0 28.8571 8.28571 37.1429 18.5714 37.1429C23.1429 37.1429 27.4286 35.4286 30.5714 32.5714L31.4286 33.4285V35.7142L45.7143 50L50 45.7143L35.7143 31.4286ZM18.5714 31.4286C11.4286 31.4286 5.71429 25.7143 5.71429 18.5714C5.71429 11.4286 11.4286 5.71429 18.5714 5.71429C25.7143 5.71429 31.4286 11.4286 31.4286 18.5714C31.4286 25.7143 25.7143 31.4286 18.5714 31.4286Z" fill="#A1A7B3"/>
<g clip-path="url(#clip0)">
<path d="M17.4395 21.2954H26.186C26.9114 21.2954 27.5 21.8839 27.5 22.6094V24.9989H16.1255V22.6094C16.1255 21.8839 16.7141 21.2954 17.4395 21.2954Z" fill="#A1A7B3"/>
<path d="M10.2357 21.4821L18.2197 13.498L16.6776 11.9586C16.4233 12.1829 16.0323 12.1719 15.7917 11.9313C15.5402 11.677 15.5402 11.2696 15.7917 11.0153L19.1166 7.69318C19.3681 7.4389 19.7783 7.4389 20.0298 7.69318C20.2841 7.94474 20.2841 8.35488 20.0298 8.60641L20.0571 8.57907L24.2789 12.798L24.2515 12.8281C24.5031 12.5738 24.9132 12.5738 25.1648 12.8281C25.419 13.0796 25.419 13.4898 25.1648 13.7413L21.8426 17.0662C21.5884 17.3177 21.1782 17.3177 20.9267 17.0662C20.6751 16.8119 20.6751 16.4045 20.9267 16.1503L20.8993 16.1775L19.3572 14.6382L11.3759 22.6195C11.0614 22.934 10.5501 22.934 10.2357 22.6195C9.92124 22.3051 9.92124 21.7965 10.2357 21.4821Z" fill="#A1A7B3"/>
</g>
<defs>
<clipPath id="clip0">
<rect width="17.5" height="17.5" fill="white" transform="matrix(-1 0 0 1 27.5 7.5)"/>
</clipPath>
</defs>
</svg>
