<svg width="100" height="100" viewBox="0 0 100 100" fill="none" xmlns="http://www.w3.org/2000/svg">
<g clip-path="url(#clip0)">
<path d="M63.1829 37.6865C62.5374 37.0414 61.6378 36.6713 60.7145 36.6713C59.778 36.6713 58.9019 37.0316 58.2464 37.6865L46.0241 49.9085L41.8035 45.6874C41.1444 45.0302 40.2685 44.6682 39.3376 44.6682C38.4059 44.6682 37.5295 45.0307 36.8696 45.6902C36.2102 46.3498 35.8468 47.2268 35.8468 48.1591C35.8468 49.0922 36.2104 49.9692 36.8693 50.6277L43.558 57.317C44.2118 57.9694 45.0877 58.3286 46.0236 58.3286C46.0238 58.3286 46.0238 58.3286 46.0238 58.3286C46.9603 58.3286 47.8359 57.9691 48.4928 57.3145L63.1834 42.6241C64.5441 41.2634 64.5444 39.0489 63.1829 37.6865Z" fill="white"/>
<path d="M90.7569 20.6075C90.7016 19.9716 90.3165 19.4114 89.7425 19.1323L50.7939 0.181396C50.2926 -0.0627033 49.7066 -0.0627033 49.2053 0.181396L10.2569 19.1321C9.683 19.4114 9.29758 19.9713 9.24256 20.6073C9.19285 21.1787 8.07597 34.7952 12.3787 51.4261C14.9133 61.2227 18.8161 70.0112 23.9784 77.5472C30.4532 86.9987 38.9266 94.4839 49.164 99.7946C49.4259 99.9307 49.7131 99.9985 49.9999 99.9985C50.2867 99.9985 50.5738 99.9307 50.8358 99.7946C61.0729 94.4839 69.5468 86.999 76.0216 77.5472C81.184 70.0112 85.0868 61.2227 87.6211 51.4261C91.9235 34.7952 90.8066 21.179 90.7569 20.6075ZM49.9996 70.296C37.2673 70.296 26.909 59.9377 26.909 47.2055C26.909 34.4732 37.2673 24.1149 49.9996 24.1149C62.7319 24.1149 73.0902 34.4732 73.0902 47.2055C73.0902 59.9377 62.7319 70.296 49.9996 70.296Z" fill="white"/>
</g>
<defs>
<clipPath id="clip0">
<rect width="100" height="100" fill="white"/>
</clipPath>
</defs>
</svg>
