<svg width="27" height="27" viewBox="0 0 27 27" fill="none" xmlns="http://www.w3.org/2000/svg">
<path d="M13.4999 22.3448C6.81557 22.3448 1.39648 20.966 1.39648 19.5517V22.8085C1.40021 24.2218 6.81743 25.6034 13.4999 25.6034C20.1824 25.6034 25.5997 24.2218 25.6034 22.8085V19.5517C25.6034 20.966 20.1843 22.3448 13.4999 22.3448Z" fill="#E4AF18"/>
<path d="M12.1034 17.2241C5.41909 17.2241 0 15.8453 0 14.431V17.6878C0.00372414 19.1011 5.42095 20.4828 12.1034 20.4828C18.7859 20.4828 24.2032 19.1011 24.2069 17.6878V14.431C24.2069 15.8453 18.7878 17.2241 12.1034 17.2241Z" fill="#F4BF1A"/>
<path d="M14.8964 12.1034C8.21205 12.1034 2.79297 10.7246 2.79297 9.31033V12.5671C2.79669 13.9804 8.21392 15.3621 14.8964 15.3621C21.5789 15.3621 26.9961 13.9804 26.9999 12.5671V9.31033C26.9999 10.7246 21.5808 12.1034 14.8964 12.1034Z" fill="#E4AF18"/>
<path d="M24.2069 3.78465C24.2069 5.19842 18.7878 6.51723 12.1034 6.51723C5.41909 6.51723 0 5.19842 0 3.78465C0 2.37041 5.41909 1.39655 12.1034 1.39655C18.7878 1.39655 24.2069 2.37041 24.2069 3.78465Z" fill="#FFD949"/>
<path d="M12.1034 6.51724C5.41909 6.51724 0 5.13838 0 3.72414V6.9809C0.00372414 8.39421 5.42095 9.77586 12.1034 9.77586C18.7859 9.77586 24.2032 8.39421 24.2069 6.9809V3.72414C24.2069 5.13838 18.7878 6.51724 12.1034 6.51724Z" fill="#F4BF1A"/>
<path d="M1.8623 5.15512V8.41142C2.14534 8.51569 2.45537 8.61624 2.79334 8.71214V5.45538C2.45537 5.35948 2.14534 5.25893 1.8623 5.15512Z" fill="#DCA815"/>
<path d="M21.4136 5.45538V8.71214C21.7515 8.61624 22.0616 8.51569 22.3446 8.41142V5.15512C22.0616 5.2594 21.7515 5.35948 21.4136 5.45538Z" fill="#DCA815"/>
<path d="M4.18945 5.79335V9.05058C4.48738 9.11249 4.79788 9.17114 5.12049 9.22654V5.96932C4.79788 5.91392 4.48738 5.85526 4.18945 5.79335Z" fill="#DCA815"/>
<path d="M19.0864 5.96932V9.22701C19.409 9.17114 19.7195 9.11249 20.0175 9.05057V5.79335C19.7195 5.85526 19.409 5.91392 19.0864 5.96932Z" fill="#DCA815"/>
<path d="M6.51709 6.17694V9.43463C6.82061 9.47373 7.13018 9.51004 7.44812 9.54263V6.28494C7.13018 6.25235 6.82061 6.21558 6.51709 6.17694Z" fill="#DCA815"/>
<path d="M16.7588 6.28541V9.5431C17.0767 9.51005 17.3863 9.47374 17.6898 9.4351V6.17694C17.3863 6.21651 17.0767 6.25282 16.7588 6.28541Z" fill="#DCA815"/>
<path d="M8.84473 6.40504V9.6632C9.15057 9.68461 9.46061 9.7037 9.77576 9.71906V6.46044C9.46061 6.44508 9.15057 6.42646 8.84473 6.40504Z" fill="#DCA815"/>
<path d="M14.4312 6.46044V9.71906C14.7463 9.7037 15.0563 9.68461 15.3622 9.6632V6.40504C15.0563 6.42646 14.7463 6.44508 14.4312 6.46044Z" fill="#DCA815"/>
<path d="M12.1032 6.51723C11.9473 6.51723 11.7922 6.51583 11.6377 6.51443V9.77306C11.7922 9.77445 11.9473 9.77585 12.1032 9.77585C12.2592 9.77585 12.4142 9.77445 12.5687 9.77306V6.51443C12.4142 6.51583 12.2592 6.51723 12.1032 6.51723Z" fill="#DCA815"/>
<path d="M4.65527 10.7413V13.9976C4.93831 14.1019 5.24834 14.2025 5.58631 14.2983V11.0416C5.24834 10.9457 4.93831 10.8451 4.65527 10.7413Z" fill="#C49214"/>
<path d="M24.207 11.0416V14.2983C24.545 14.2025 24.855 14.1019 25.1381 13.9976V10.7413C24.855 10.8456 24.545 10.9457 24.207 11.0416Z" fill="#C49214"/>
<path d="M6.98291 11.3796V14.6368C7.28084 14.6987 7.59134 14.7574 7.91394 14.8128V11.5555C7.59134 11.5001 7.28084 11.4415 6.98291 11.3796Z" fill="#C49214"/>
<path d="M21.8794 11.5555V14.8132C22.202 14.7574 22.5125 14.6987 22.8104 14.6368V11.3796C22.5125 11.4415 22.202 11.5001 21.8794 11.5555Z" fill="#C49214"/>
<path d="M9.31055 11.7636V15.0213C9.61406 15.0604 9.92363 15.0967 10.2416 15.1293V11.8716C9.92363 11.8386 9.61406 11.8022 9.31055 11.7636Z" fill="#C49214"/>
<path d="M19.5518 11.8711V15.1293C19.8697 15.0962 20.1793 15.0599 20.4828 15.0213V11.7636C20.1793 11.8027 19.8697 11.839 19.5518 11.8711Z" fill="#C49214"/>
<path d="M11.6377 11.9913V15.2494C11.9435 15.2708 12.2536 15.2899 12.5687 15.3053V12.0467C12.2536 12.0313 11.9435 12.0127 11.6377 11.9913Z" fill="#C49214"/>
<path d="M17.2241 12.0467V15.3053C17.5393 15.2899 17.8493 15.2708 18.1552 15.2494V11.9913C17.8493 12.0127 17.5393 12.0313 17.2241 12.0467Z" fill="#C49214"/>
<path d="M14.8967 12.1034C14.7407 12.1034 14.5857 12.102 14.4312 12.1006V15.3593C14.5857 15.3607 14.7407 15.3621 14.8967 15.3621C15.0526 15.3621 15.2076 15.3607 15.3622 15.3593V12.1006C15.2076 12.102 15.0526 12.1034 14.8967 12.1034Z" fill="#C49214"/>
<path d="M1.8623 15.862V19.1183C2.14534 19.2226 2.45537 19.3227 2.79334 19.419V16.1623C2.45537 16.0664 2.14534 15.9658 1.8623 15.862Z" fill="#DCA815"/>
<path d="M21.4136 16.1623V19.419C21.7515 19.3231 22.0616 19.2226 22.3446 19.1183V15.862C22.0616 15.9663 21.7515 16.0664 21.4136 16.1623Z" fill="#DCA815"/>
<path d="M4.18945 16.5002V19.7575C4.48738 19.8194 4.79788 19.878 5.12049 19.9334V16.6762C4.79788 16.6208 4.48738 16.5622 4.18945 16.5002Z" fill="#DCA815"/>
<path d="M19.0864 16.6762V19.9339C19.409 19.878 19.7195 19.8194 20.0175 19.7575V16.5002C19.7195 16.5622 19.409 16.6208 19.0864 16.6762Z" fill="#DCA815"/>
<path d="M6.51709 16.8843V20.142C6.82061 20.1811 7.13018 20.2174 7.44812 20.25V16.9923C7.13018 16.9592 6.82061 16.9229 6.51709 16.8843Z" fill="#DCA815"/>
<path d="M16.7588 16.9918V20.25C17.0767 20.2169 17.3863 20.1806 17.6898 20.142V16.8843C17.3863 16.9234 17.0767 16.9597 16.7588 16.9918Z" fill="#DCA815"/>
<path d="M8.84473 17.1119V20.3701C9.15057 20.3915 9.46061 20.4106 9.77576 20.426V17.1673C9.46061 17.152 9.15057 17.1334 8.84473 17.1119Z" fill="#DCA815"/>
<path d="M14.4312 17.1673V20.426C14.7463 20.4106 15.0563 20.3915 15.3622 20.3701V17.1119C15.0563 17.1334 14.7463 17.152 14.4312 17.1673Z" fill="#DCA815"/>
<path d="M12.1032 17.2241C11.9473 17.2241 11.7922 17.2227 11.6377 17.2213V20.4799C11.7922 20.4813 11.9473 20.4827 12.1032 20.4827C12.2592 20.4827 12.4142 20.4813 12.5687 20.4799V17.2213C12.4142 17.2227 12.2592 17.2241 12.1032 17.2241Z" fill="#DCA815"/>
<path d="M3.25879 20.9827V24.239C3.54182 24.3433 3.85186 24.4434 4.18982 24.5397V21.283C3.85186 21.1871 3.54182 21.0865 3.25879 20.9827Z" fill="#C49214"/>
<path d="M22.8105 21.283V24.5397C23.1485 24.4438 23.4585 24.3433 23.7416 24.239V20.9827C23.4585 21.087 23.1485 21.1871 22.8105 21.283Z" fill="#C49214"/>
<path d="M5.58643 21.6209V24.8782C5.88436 24.9401 6.19486 24.9987 6.51746 25.0541V21.7969C6.19486 21.7415 5.88436 21.6829 5.58643 21.6209Z" fill="#C49214"/>
<path d="M20.4829 21.7969V25.0546C20.8055 24.9987 21.116 24.9401 21.4139 24.8782V21.6209C21.116 21.6829 20.8055 21.7415 20.4829 21.7969Z" fill="#C49214"/>
<path d="M7.91357 22.005V25.2627C8.21709 25.3018 8.52666 25.3381 8.84461 25.3707V22.113C8.52666 22.0799 8.21709 22.0436 7.91357 22.005Z" fill="#C49214"/>
<path d="M18.1553 22.1125V25.3707C18.4732 25.3376 18.7828 25.3013 19.0863 25.2627V22.005C18.7828 22.0441 18.4732 22.0804 18.1553 22.1125Z" fill="#C49214"/>
<path d="M10.2412 22.2326V25.4908C10.5471 25.5122 10.8571 25.5313 11.1722 25.5467V22.288C10.8571 22.2727 10.5471 22.254 10.2412 22.2326Z" fill="#C49214"/>
<path d="M15.8276 22.288V25.5467C16.1428 25.5313 16.4528 25.5122 16.7587 25.4908V22.2326C16.4528 22.254 16.1428 22.2727 15.8276 22.288Z" fill="#C49214"/>
<path d="M13.5002 22.3448C13.3442 22.3448 13.1892 22.3434 13.0347 22.342V25.6006C13.1892 25.602 13.3442 25.6034 13.5002 25.6034C13.6561 25.6034 13.8112 25.602 13.9657 25.6006V22.342C13.8112 22.3434 13.6561 22.3448 13.5002 22.3448Z" fill="#C49214"/>
<path d="M23.84 18.3283C22.5179 19.4912 17.7655 20.4828 12.1034 20.4828C7.67631 20.4828 3.80647 19.8762 1.69628 19.0559C1.50216 19.2319 1.39648 19.4181 1.39648 19.6122C1.39648 21.0265 6.81557 22.3448 13.4999 22.3448C20.1848 22.3448 25.6034 21.0265 25.6034 19.6122C25.6034 19.1248 24.9586 18.6891 23.84 18.3283Z" fill="#FCC62D"/>
<path d="M14.8966 15.3621C8.74567 15.3621 3.67014 14.1913 2.89831 12.9027C1.09257 13.3119 0 13.8571 0 14.4916C0 15.9053 5.41909 17.2241 12.1034 17.2241C18.7878 17.2241 24.2069 15.9053 24.2069 14.4916C24.2069 14.4292 24.1929 14.3682 24.172 14.3077C21.9519 14.9324 18.6216 15.3621 14.8966 15.3621Z" fill="#FFD949"/>
<path d="M23.738 7.70384C22.2898 8.83039 17.6309 9.77586 12.1033 9.77586C8.53373 9.77586 5.32585 9.3811 3.11045 8.79827C2.90516 8.97982 2.79297 9.17069 2.79297 9.37086C2.79297 10.7851 8.21205 12.1034 14.8964 12.1034C21.5808 12.1034 26.9999 10.7851 26.9999 9.37086C26.9999 8.69493 25.7602 8.12001 23.738 7.70384Z" fill="#FCC62D"/>
</svg>
