<svg width="100" height="100" viewBox="0 0 100 100" fill="none" xmlns="http://www.w3.org/2000/svg">
<path d="M1.96485 99.7084C3.05 99.7084 3.9297 98.8287 3.9297 97.7435C3.9297 96.6584 3.05 95.7787 1.96485 95.7787C0.879692 95.7787 0 96.6584 0 97.7435C0 98.8287 0.879692 99.7084 1.96485 99.7084Z" fill="white"/>
<path d="M52.1497 49.8728C53.2327 49.8728 54.1106 48.9948 54.1106 47.9118C54.1106 46.8288 53.2327 45.9509 52.1497 45.9509C51.0667 45.9509 50.1887 46.8288 50.1887 47.9118C50.1887 48.9948 51.0667 49.8728 52.1497 49.8728Z" fill="white"/>
<path d="M77.8279 23.0532C76.2516 21.4766 74.1557 20.6086 71.9264 20.6086C69.6971 20.6086 67.601 21.477 66.0248 23.0532C62.7707 26.3075 62.7707 31.6024 66.0248 34.8565C67.6522 36.4837 69.7889 37.297 71.9264 37.297C74.0633 37.297 76.201 36.4833 77.8279 34.8565C81.0821 31.6022 81.0821 26.3073 77.8279 23.0532ZM75.0551 32.0833C73.3299 33.8083 70.5227 33.8083 68.7979 32.0833C67.0727 30.3583 67.0727 27.5512 68.7979 25.826C69.6336 24.9903 70.7445 24.5301 71.9264 24.5301C73.1082 24.5301 74.2192 24.9903 75.0549 25.826C76.7801 27.5512 76.7801 30.3583 75.0551 32.0833Z" fill="white"/>
<path d="M24.494 80.3615C23.5244 79.8787 22.3475 80.2734 21.8647 81.2427L19.5291 85.9332C18.5135 87.9724 16.4709 89.3361 14.1979 89.4916L11.4814 89.6775C11.0223 89.7082 10.7203 89.4795 10.5807 89.3398C10.441 89.2002 10.2117 88.8976 10.243 88.4388L10.4289 85.7226C10.5846 83.4498 11.9482 81.407 13.9873 80.3914L18.6776 78.0558C19.6471 77.573 20.0416 76.3959 19.5588 75.4265C19.0762 74.4572 17.899 74.0625 16.9295 74.5453L12.2393 76.8808C8.95956 78.514 6.76659 81.7992 6.5162 85.4547L6.33026 88.1709C6.22987 89.6371 6.76815 91.0738 7.80722 92.1129C8.76386 93.0695 10.0578 93.6019 11.4016 93.6019C11.517 93.6019 11.6332 93.598 11.7492 93.59L14.4656 93.4041C18.1211 93.1539 21.4063 90.9611 23.0395 87.681L25.375 82.9908C25.8578 82.0213 25.4633 80.8443 24.494 80.3615Z" fill="white"/>
<path d="M98.6466 1.59765C97.7265 0.691202 96.4589 0.217177 95.1714 0.300967L93.3456 0.417373C76.9747 1.46249 61.6538 9.36466 51.3113 22.0979L47.0137 27.3887L35.767 27.0584C35.7478 27.0579 35.7285 27.0577 35.7096 27.0577C26.79 27.0577 18.4043 30.5311 12.097 36.8381L0.577854 48.3575C0.0300012 48.9054 -0.144023 49.7247 0.134103 50.4477C0.412228 51.171 1.08996 51.6628 1.86379 51.7022L26.2474 52.955L25.2533 54.179C24.7523 54.796 24.673 55.6542 25.0529 56.3522C25.4349 57.0546 25.8353 57.7458 26.2529 58.4259L20.4705 65.2905C19.9761 65.8775 19.8697 66.6989 20.1976 67.3927C21.4607 70.0616 23.1371 72.4597 25.1808 74.5203C27.2742 76.6312 29.722 78.3574 32.456 79.6513C32.7232 79.7779 33.0098 79.8398 33.2945 79.8398C33.7361 79.8398 34.174 79.6906 34.5303 79.4017C35.776 78.3912 37.2121 77.1925 38.6012 76.0335C39.5912 75.2074 40.6041 74.3622 41.5508 73.5829C42.1158 73.923 42.6879 74.2527 43.2686 74.5685C43.5623 74.7283 43.8844 74.807 44.2053 74.807C44.6322 74.807 45.0565 74.6679 45.4076 74.3953L46.7442 73.3581L48.0024 97.8445C48.0422 98.6183 48.5338 99.2961 49.2569 99.5742C49.4858 99.6621 49.7236 99.7051 49.96 99.7051C50.4707 99.7051 50.9723 99.5053 51.3469 99.1305L62.8663 87.6111C69.1735 81.3039 72.6467 72.9183 72.6467 63.9986V53.2573L77.1911 49.7309C90.8101 39.1626 99.1044 23.2262 99.9474 6.00781L99.9941 5.05352C100.058 3.76367 99.5663 2.50429 98.6466 1.59765ZM6.46927 48.0122L14.8701 39.6114C20.4297 34.0518 27.8199 30.987 35.6812 30.9793L43.901 31.2208L29.3092 49.1856L6.46927 48.0122ZM36.0887 73.0224C35.065 73.8763 34.0156 74.7521 33.0418 75.5531C31.1582 74.5329 29.4543 73.2601 27.9652 71.7585C26.523 70.3044 25.2955 68.6488 24.3056 66.8249L28.5392 61.7989C29.8193 63.5163 31.2205 65.1431 32.7342 66.6671C32.7353 66.6683 32.7365 66.6693 32.7377 66.6704C32.7381 66.6708 32.7385 66.6714 32.7389 66.6718C32.7394 66.6724 32.74 66.6728 32.7406 66.6734C34.4189 68.3624 36.2242 69.9124 38.1393 71.3142C37.4631 71.8755 36.7703 72.4536 36.0887 73.0224ZM68.7256 63.9986C68.7256 71.8706 65.6602 79.2714 60.0936 84.838L51.6928 93.2388L50.5205 70.4279L68.7254 56.3009V63.9986H68.7256ZM96.031 5.81621C95.2441 21.8899 87.5011 36.7669 74.7874 46.6327L44.0334 70.4978C41.483 69.0075 39.1059 67.248 36.9303 65.2544L47.2986 54.886C48.0643 54.1204 48.0643 52.8786 47.2986 52.1128C46.5328 51.347 45.2912 51.347 44.5254 52.1128L34.1668 62.4714C32.2623 60.363 30.5756 58.0689 29.1394 55.6151L54.3555 24.5704C64.0102 12.6838 78.3126 5.30684 93.5952 4.33144L95.421 4.21504C95.6603 4.20019 95.8204 4.31894 95.8942 4.3916C95.9679 4.46406 96.0896 4.62168 96.0778 4.86211L96.031 5.81621Z" fill="white"/>
</svg>
