<svg width="26" height="22" viewBox="0 0 26 22" fill="none" xmlns="http://www.w3.org/2000/svg">
<path fill-rule="evenodd" clip-rule="evenodd" d="M12.8446 5.65032L12.9 6.56904L11.9762 6.45654C8.61329 6.02531 5.67541 4.56287 3.18097 2.10671L1.96147 0.888008L1.64736 1.78797C0.982175 3.79415 1.40715 5.91282 2.79295 7.33776C3.53204 8.12523 3.36574 8.23773 2.09081 7.76899C1.64736 7.619 1.25933 7.5065 1.22238 7.56275C1.09304 7.694 1.53649 9.40018 1.88756 10.0752C2.36797 11.0126 3.34727 11.9313 4.41895 12.4751L5.32434 12.9063L4.25265 12.925C3.21793 12.925 3.18097 12.9438 3.29184 13.3375C3.66138 14.5562 5.12109 15.8499 6.74709 16.4124L7.89268 16.8061L6.89491 17.4061C5.41672 18.2686 3.67986 18.7561 1.94299 18.7936C1.11152 18.8123 0.427856 18.8873 0.427856 18.9436C0.427856 19.1311 2.68209 20.181 3.99397 20.5935C7.92963 21.8122 12.6044 21.2872 16.1151 19.2061C18.6095 17.7249 21.1039 14.7812 22.268 11.9313C22.8962 10.4126 23.5245 7.63775 23.5245 6.30655C23.5245 5.44408 23.5799 5.33159 24.6146 4.30038C25.2244 3.7004 25.7972 3.04418 25.908 2.85668C26.0928 2.50045 26.0743 2.50045 25.132 2.81918C23.5614 3.38166 23.3397 3.30667 24.1157 2.46295C24.6885 1.86297 25.3722 0.775512 25.3722 0.456775C25.3722 0.400527 25.095 0.494273 24.7809 0.663017C24.4483 0.85051 23.7092 1.13175 23.1549 1.30049L22.1571 1.61923L21.2518 1.0005C20.7529 0.663017 20.0507 0.288031 19.6812 0.175535C18.7388 -0.0869545 17.2976 -0.0494559 16.4477 0.250533C14.138 1.09425 12.6783 3.26917 12.8446 5.65032Z" fill="white"/>
</svg>
