<svg width="30" height="22" viewBox="0 0 30 22" fill="none" xmlns="http://www.w3.org/2000/svg">
<path fill-rule="evenodd" clip-rule="evenodd" d="M28.7874 3.31678C28.4493 2.01117 27.4529 0.983062 26.1878 0.634134C23.8951 0 14.7009 0 14.7009 0C14.7009 0 5.50666 0 3.21382 0.634134C1.9487 0.983062 0.952385 2.01117 0.614264 3.31678C0 5.68305 0 10.6203 0 10.6203C0 10.6203 0 15.5574 0.614264 17.9238C0.952385 19.2294 1.9487 20.2575 3.21382 20.6066C5.50666 21.2406 14.7009 21.2406 14.7009 21.2406C14.7009 21.2406 23.8951 21.2406 26.1878 20.6066C27.4529 20.2575 28.4493 19.2294 28.7874 17.9238C29.4018 15.5574 29.4018 10.6203 29.4018 10.6203C29.4018 10.6203 29.4018 5.68305 28.7874 3.31678Z" fill="white"/>
<path fill-rule="evenodd" clip-rule="evenodd" d="M11.9447 15.6998V6.4646L19.2951 11.0824L11.9447 15.6998Z" fill="#191919"/>
</svg>
